<mxfile host="app.diagrams.net" modified="2023-10-02T10:47:31.749Z" agent="Mozilla/5.0 (X11; Linux x86_64; rv:109.0) Gecko/20100101 Firefox/118.0" etag="EwkeWxuHxLGBubQROQwc" version="22.0.0" type="device">
  <diagram name="Page-1" id="822b0af5-4adb-64df-f703-e8dfc1f81529">
    <mxGraphModel dx="2294" dy="2461" grid="1" gridSize="10" guides="1" tooltips="1" connect="1" arrows="1" fold="1" page="1" pageScale="1" pageWidth="1100" pageHeight="850" background="none" math="0" shadow="0">
      <root>
        <mxCell id="0" />
        <mxCell id="1" parent="0" />
        <mxCell id="7d933b09d9755ecc-5" value="Medcase&lt;br&gt;&lt;div&gt;API&lt;/div&gt;&lt;div&gt;&lt;br&gt;&lt;/div&gt;" style="verticalLabelPosition=bottom;aspect=fixed;html=1;verticalAlign=top;strokeColor=none;shape=mxgraph.citrix.file_server;rounded=0;shadow=0;comic=0;fontFamily=Verdana;" parent="1" vertex="1">
          <mxGeometry x="-990" y="-1039" width="71" height="97" as="geometry" />
        </mxCell>
        <mxCell id="BV0hq-VL02hFemEwukIW-1" value="&lt;div&gt;Renegade&amp;nbsp;&lt;/div&gt;&lt;div&gt;Api&lt;/div&gt;" style="verticalLabelPosition=bottom;aspect=fixed;html=1;verticalAlign=top;strokeColor=none;shape=mxgraph.citrix.file_server;rounded=0;shadow=0;comic=0;fontFamily=Verdana;" parent="1" vertex="1">
          <mxGeometry x="-415.5" y="-740" width="71" height="97" as="geometry" />
        </mxCell>
        <mxCell id="BV0hq-VL02hFemEwukIW-3" value="Patient&lt;br&gt;new Meetings&lt;br&gt;Request" style="rounded=0;whiteSpace=wrap;html=1;" parent="1" vertex="1">
          <mxGeometry x="-440" y="-470" width="120" height="60" as="geometry" />
        </mxCell>
        <mxCell id="BV0hq-VL02hFemEwukIW-5" value="Patient&lt;br&gt;new Meetings&lt;br&gt;Request" style="rounded=0;whiteSpace=wrap;html=1;" parent="1" vertex="1">
          <mxGeometry x="-749" y="-997" width="120" height="60" as="geometry" />
        </mxCell>
        <mxCell id="BV0hq-VL02hFemEwukIW-6" value="" style="endArrow=classic;html=1;rounded=0;exitX=0.5;exitY=0;exitDx=0;exitDy=0;" parent="1" source="BV0hq-VL02hFemEwukIW-3" edge="1">
          <mxGeometry width="50" height="50" relative="1" as="geometry">
            <mxPoint x="-700" y="-540" as="sourcePoint" />
            <mxPoint x="-380" y="-590" as="targetPoint" />
          </mxGeometry>
        </mxCell>
        <mxCell id="BV0hq-VL02hFemEwukIW-11" value="YES" style="ellipse;whiteSpace=wrap;html=1;aspect=fixed;" parent="1" vertex="1">
          <mxGeometry x="-569" y="-990" width="47" height="47" as="geometry" />
        </mxCell>
        <mxCell id="BV0hq-VL02hFemEwukIW-12" value="NO" style="ellipse;whiteSpace=wrap;html=1;aspect=fixed;" parent="1" vertex="1">
          <mxGeometry x="-409" y="-1120" width="47" height="47" as="geometry" />
        </mxCell>
        <mxCell id="BV0hq-VL02hFemEwukIW-14" value="Is&lt;br&gt;Existing&lt;br&gt;Patient&lt;br&gt;?" style="ellipse;whiteSpace=wrap;html=1;aspect=fixed;" parent="1" vertex="1">
          <mxGeometry x="-424.5" y="-1007" width="80" height="80" as="geometry" />
        </mxCell>
        <mxCell id="BV0hq-VL02hFemEwukIW-18" value="" style="endArrow=none;dashed=1;html=1;dashPattern=1 3;strokeWidth=4;rounded=0;" parent="1" edge="1">
          <mxGeometry width="50" height="50" relative="1" as="geometry">
            <mxPoint x="-870" y="-580" as="sourcePoint" />
            <mxPoint x="-870" y="-1390" as="targetPoint" />
          </mxGeometry>
        </mxCell>
        <mxCell id="BV0hq-VL02hFemEwukIW-19" value="Orchard&lt;br&gt;&lt;div&gt;API&lt;/div&gt;&lt;div&gt;&lt;br&gt;&lt;/div&gt;" style="verticalLabelPosition=bottom;aspect=fixed;html=1;verticalAlign=top;strokeColor=none;shape=mxgraph.citrix.file_server;rounded=0;shadow=0;comic=0;fontFamily=Verdana;" parent="1" vertex="1">
          <mxGeometry x="-421" y="-1600" width="71" height="97" as="geometry" />
        </mxCell>
        <mxCell id="BV0hq-VL02hFemEwukIW-20" value="" style="endArrow=none;dashed=1;html=1;dashPattern=1 3;strokeWidth=4;strokeColor=default;rounded=0;" parent="1" edge="1">
          <mxGeometry width="50" height="50" relative="1" as="geometry">
            <mxPoint x="80" y="-1430" as="sourcePoint" />
            <mxPoint x="-840" y="-1430" as="targetPoint" />
          </mxGeometry>
        </mxCell>
        <mxCell id="BV0hq-VL02hFemEwukIW-21" value="" style="endArrow=classic;html=1;rounded=0;exitX=0;exitY=0.5;exitDx=0;exitDy=0;entryX=1;entryY=0.5;entryDx=0;entryDy=0;" parent="1" source="BV0hq-VL02hFemEwukIW-14" target="BV0hq-VL02hFemEwukIW-11" edge="1">
          <mxGeometry width="50" height="50" relative="1" as="geometry">
            <mxPoint x="-142" y="-970" as="sourcePoint" />
            <mxPoint x="-142" y="-1040" as="targetPoint" />
          </mxGeometry>
        </mxCell>
        <mxCell id="BV0hq-VL02hFemEwukIW-22" value="" style="endArrow=classic;html=1;rounded=0;exitX=0.5;exitY=0;exitDx=0;exitDy=0;entryX=0.5;entryY=1;entryDx=0;entryDy=0;" parent="1" source="BV0hq-VL02hFemEwukIW-14" target="BV0hq-VL02hFemEwukIW-12" edge="1">
          <mxGeometry width="50" height="50" relative="1" as="geometry">
            <mxPoint x="-181" y="-920" as="sourcePoint" />
            <mxPoint x="-181" y="-990" as="targetPoint" />
          </mxGeometry>
        </mxCell>
        <mxCell id="BV0hq-VL02hFemEwukIW-23" value="" style="endArrow=classic;html=1;rounded=0;exitX=0.5;exitY=0;exitDx=0;exitDy=0;entryX=0.5;entryY=1;entryDx=0;entryDy=0;" parent="1" source="BV0hq-VL02hFemEwukIW-12" target="BV0hq-VL02hFemEwukIW-38" edge="1">
          <mxGeometry width="50" height="50" relative="1" as="geometry">
            <mxPoint x="-171" y="-910" as="sourcePoint" />
            <mxPoint x="-171" y="-980" as="targetPoint" />
          </mxGeometry>
        </mxCell>
        <mxCell id="TRAau30YiLm6-F1vyoVF-21" style="edgeStyle=orthogonalEdgeStyle;rounded=0;orthogonalLoop=1;jettySize=auto;html=1;exitX=1;exitY=0.5;exitDx=0;exitDy=0;entryX=0;entryY=0.5;entryDx=0;entryDy=0;" edge="1" parent="1" source="BV0hq-VL02hFemEwukIW-38" target="TRAau30YiLm6-F1vyoVF-19">
          <mxGeometry relative="1" as="geometry" />
        </mxCell>
        <mxCell id="BV0hq-VL02hFemEwukIW-38" value="Create New &lt;br&gt;Medcase Patient" style="rounded=0;whiteSpace=wrap;html=1;" parent="1" vertex="1">
          <mxGeometry x="-445.5" y="-1300" width="120" height="60" as="geometry" />
        </mxCell>
        <mxCell id="BV0hq-VL02hFemEwukIW-39" value="" style="endArrow=classic;html=1;rounded=0;entryX=0.681;entryY=0.043;entryDx=0;entryDy=0;entryPerimeter=0;exitX=0;exitY=1;exitDx=0;exitDy=0;" parent="1" target="BV0hq-VL02hFemEwukIW-11" edge="1" source="BV0hq-VL02hFemEwukIW-38">
          <mxGeometry width="50" height="50" relative="1" as="geometry">
            <mxPoint x="-393" y="-1140" as="sourcePoint" />
            <mxPoint x="-453" y="-1030" as="targetPoint" />
          </mxGeometry>
        </mxCell>
        <mxCell id="BV0hq-VL02hFemEwukIW-40" value="" style="endArrow=classic;html=1;rounded=0;exitX=0;exitY=0.75;exitDx=0;exitDy=0;strokeWidth=3;fillColor=#dae8fc;strokeColor=#6c8ebf;" parent="1" source="BV0hq-VL02hFemEwukIW-5" edge="1">
          <mxGeometry width="50" height="50" relative="1" as="geometry">
            <mxPoint x="-346" y="-950" as="sourcePoint" />
            <mxPoint x="-859" y="-952" as="targetPoint" />
          </mxGeometry>
        </mxCell>
        <mxCell id="BV0hq-VL02hFemEwukIW-41" value="" style="endArrow=classic;html=1;rounded=0;entryX=0;entryY=0.25;entryDx=0;entryDy=0;" parent="1" target="BV0hq-VL02hFemEwukIW-5" edge="1">
          <mxGeometry width="50" height="50" relative="1" as="geometry">
            <mxPoint x="-856" y="-980" as="sourcePoint" />
            <mxPoint x="-746" y="-860" as="targetPoint" />
            <Array as="points">
              <mxPoint x="-859" y="-982" />
            </Array>
          </mxGeometry>
        </mxCell>
        <mxCell id="BV0hq-VL02hFemEwukIW-42" value="" style="endArrow=classic;html=1;rounded=0;exitX=0;exitY=0.5;exitDx=0;exitDy=0;entryX=1;entryY=0.5;entryDx=0;entryDy=0;" parent="1" source="BV0hq-VL02hFemEwukIW-11" target="BV0hq-VL02hFemEwukIW-5" edge="1">
          <mxGeometry width="50" height="50" relative="1" as="geometry">
            <mxPoint x="-669" y="-850" as="sourcePoint" />
            <mxPoint x="-1099" y="-850" as="targetPoint" />
          </mxGeometry>
        </mxCell>
        <mxCell id="BV0hq-VL02hFemEwukIW-44" value="" style="endArrow=classic;html=1;rounded=0;strokeWidth=3;fillColor=#dae8fc;strokeColor=#6c8ebf;exitX=0;exitY=0.75;exitDx=0;exitDy=0;" parent="1" source="BV0hq-VL02hFemEwukIW-38" edge="1">
          <mxGeometry width="50" height="50" relative="1" as="geometry">
            <mxPoint x="-260" y="-1250" as="sourcePoint" />
            <mxPoint x="-860" y="-1255" as="targetPoint" />
          </mxGeometry>
        </mxCell>
        <mxCell id="BV0hq-VL02hFemEwukIW-50" value="" style="endArrow=classic;html=1;rounded=0;strokeWidth=3;fillColor=#f8cecc;strokeColor=#FF3333;" parent="1" edge="1">
          <mxGeometry width="50" height="50" relative="1" as="geometry">
            <mxPoint x="-850" y="-770" as="sourcePoint" />
            <mxPoint x="-570" y="-770" as="targetPoint" />
          </mxGeometry>
        </mxCell>
        <mxCell id="BV0hq-VL02hFemEwukIW-52" value="" style="endArrow=classic;html=1;rounded=0;exitX=1;exitY=0.5;exitDx=0;exitDy=0;" parent="1" edge="1" target="BV0hq-VL02hFemEwukIW-1" source="BV0hq-VL02hFemEwukIW-77">
          <mxGeometry width="50" height="50" relative="1" as="geometry">
            <mxPoint x="-481" y="-692" as="sourcePoint" />
            <mxPoint x="-421" y="-692" as="targetPoint" />
          </mxGeometry>
        </mxCell>
        <mxCell id="BV0hq-VL02hFemEwukIW-75" value="" style="endArrow=none;dashed=1;html=1;dashPattern=1 3;strokeWidth=4;rounded=0;" parent="1" edge="1">
          <mxGeometry width="50" height="50" relative="1" as="geometry">
            <mxPoint x="-830" y="-520" as="sourcePoint" />
            <mxPoint x="80" y="-520" as="targetPoint" />
          </mxGeometry>
        </mxCell>
        <mxCell id="BV0hq-VL02hFemEwukIW-76" value="" style="endArrow=classic;html=1;rounded=0;exitX=0.415;exitY=0.01;exitDx=0;exitDy=0;exitPerimeter=0;entryX=0.5;entryY=1;entryDx=0;entryDy=0;" parent="1" edge="1" target="BV0hq-VL02hFemEwukIW-14" source="BV0hq-VL02hFemEwukIW-1">
          <mxGeometry width="50" height="50" relative="1" as="geometry">
            <mxPoint x="-385" y="-750" as="sourcePoint" />
            <mxPoint x="-385" y="-870" as="targetPoint" />
          </mxGeometry>
        </mxCell>
        <mxCell id="BV0hq-VL02hFemEwukIW-77" value="MC&lt;br&gt;WebHooks" style="rounded=0;whiteSpace=wrap;html=1;" parent="1" vertex="1">
          <mxGeometry x="-558" y="-786.5" width="70" height="190" as="geometry" />
        </mxCell>
        <mxCell id="BV0hq-VL02hFemEwukIW-78" value="New Medcase Meeting Created Webhook" style="text;html=1;strokeColor=none;fillColor=none;align=center;verticalAlign=middle;whiteSpace=wrap;rounded=0;" parent="1" vertex="1">
          <mxGeometry x="-840" y="-800" width="250" height="30" as="geometry" />
        </mxCell>
        <mxCell id="BV0hq-VL02hFemEwukIW-79" value="" style="endArrow=classic;html=1;rounded=0;strokeWidth=3;fillColor=#f8cecc;strokeColor=#FF3333;" parent="1" edge="1">
          <mxGeometry width="50" height="50" relative="1" as="geometry">
            <mxPoint x="-850" y="-620" as="sourcePoint" />
            <mxPoint x="-570" y="-620" as="targetPoint" />
          </mxGeometry>
        </mxCell>
        <mxCell id="BV0hq-VL02hFemEwukIW-80" value="New Medcase Note Created Webhook" style="text;html=1;strokeColor=none;fillColor=none;align=center;verticalAlign=middle;whiteSpace=wrap;rounded=0;" parent="1" vertex="1">
          <mxGeometry x="-840" y="-650" width="240" height="30" as="geometry" />
        </mxCell>
        <mxCell id="BV0hq-VL02hFemEwukIW-81" value="" style="endArrow=none;html=1;rounded=0;" parent="1" edge="1">
          <mxGeometry width="50" height="50" relative="1" as="geometry">
            <mxPoint x="-1080" y="-250" as="sourcePoint" />
            <mxPoint x="-1080" y="-1680" as="targetPoint" />
          </mxGeometry>
        </mxCell>
        <mxCell id="BV0hq-VL02hFemEwukIW-82" value="" style="endArrow=none;html=1;rounded=0;" parent="1" edge="1">
          <mxGeometry width="50" height="50" relative="1" as="geometry">
            <mxPoint x="340" y="-250" as="sourcePoint" />
            <mxPoint x="340" y="-1680" as="targetPoint" />
          </mxGeometry>
        </mxCell>
        <mxCell id="TRAau30YiLm6-F1vyoVF-1" value="&lt;div&gt;&lt;font style=&quot;font-size: 26px;&quot;&gt;Flow: &lt;br&gt;&lt;/font&gt;&lt;/div&gt;&lt;font style=&quot;font-size: 26px;&quot;&gt;Patient / Provider&lt;br&gt;Create new Medcase&lt;br&gt;Meeting&lt;br&gt;&lt;/font&gt;" style="text;html=1;strokeColor=none;fillColor=none;align=center;verticalAlign=middle;whiteSpace=wrap;rounded=0;" vertex="1" parent="1">
          <mxGeometry x="-1060" y="-1671" width="510" height="121" as="geometry" />
        </mxCell>
        <mxCell id="TRAau30YiLm6-F1vyoVF-2" value="" style="endArrow=classic;html=1;rounded=0;strokeWidth=1;fillColor=#dae8fc;strokeColor=#000033;entryX=0;entryY=0.25;entryDx=0;entryDy=0;" edge="1" parent="1" target="BV0hq-VL02hFemEwukIW-38">
          <mxGeometry width="50" height="50" relative="1" as="geometry">
            <mxPoint x="-860" y="-1285" as="sourcePoint" />
            <mxPoint x="-841" y="-1380" as="targetPoint" />
          </mxGeometry>
        </mxCell>
        <mxCell id="TRAau30YiLm6-F1vyoVF-5" value="&lt;b&gt;DB&lt;/b&gt;" style="shape=datastore;whiteSpace=wrap;html=1;" vertex="1" parent="1">
          <mxGeometry x="-30" y="-730" width="60" height="60" as="geometry" />
        </mxCell>
        <mxCell id="TRAau30YiLm6-F1vyoVF-6" value="MC Meeting&lt;br&gt;Update" style="rounded=0;whiteSpace=wrap;html=1;" vertex="1" parent="1">
          <mxGeometry x="-270" y="-786.5" width="160" height="60" as="geometry" />
        </mxCell>
        <mxCell id="TRAau30YiLm6-F1vyoVF-10" value="&lt;div&gt;&lt;font style=&quot;font-size: 26px;&quot;&gt;&lt;b&gt;4&lt;/b&gt;&lt;/font&gt;&lt;/div&gt;" style="ellipse;whiteSpace=wrap;html=1;aspect=fixed;" vertex="1" parent="1">
          <mxGeometry x="-740" y="-760" width="50" height="50" as="geometry" />
        </mxCell>
        <mxCell id="TRAau30YiLm6-F1vyoVF-11" value="MC Notes&lt;br&gt;Update" style="rounded=0;whiteSpace=wrap;html=1;" vertex="1" parent="1">
          <mxGeometry x="-270" y="-665" width="160" height="60" as="geometry" />
        </mxCell>
        <mxCell id="TRAau30YiLm6-F1vyoVF-12" value="" style="endArrow=classic;html=1;rounded=0;exitX=0.923;exitY=0.495;exitDx=0;exitDy=0;exitPerimeter=0;entryX=0;entryY=0.5;entryDx=0;entryDy=0;" edge="1" parent="1" source="BV0hq-VL02hFemEwukIW-1" target="TRAau30YiLm6-F1vyoVF-11">
          <mxGeometry width="50" height="50" relative="1" as="geometry">
            <mxPoint x="-185" y="-910" as="sourcePoint" />
            <mxPoint x="-125" y="-910" as="targetPoint" />
          </mxGeometry>
        </mxCell>
        <mxCell id="TRAau30YiLm6-F1vyoVF-13" value="" style="endArrow=classic;html=1;rounded=0;exitX=0.965;exitY=0.495;exitDx=0;exitDy=0;exitPerimeter=0;entryX=0;entryY=0.5;entryDx=0;entryDy=0;" edge="1" parent="1" source="BV0hq-VL02hFemEwukIW-1" target="TRAau30YiLm6-F1vyoVF-6">
          <mxGeometry width="50" height="50" relative="1" as="geometry">
            <mxPoint x="-175" y="-900" as="sourcePoint" />
            <mxPoint x="-115" y="-900" as="targetPoint" />
          </mxGeometry>
        </mxCell>
        <mxCell id="TRAau30YiLm6-F1vyoVF-15" value="" style="endArrow=classic;html=1;rounded=0;exitX=1;exitY=0.5;exitDx=0;exitDy=0;entryX=0;entryY=0.5;entryDx=0;entryDy=0;" edge="1" parent="1" source="TRAau30YiLm6-F1vyoVF-11" target="TRAau30YiLm6-F1vyoVF-5">
          <mxGeometry width="50" height="50" relative="1" as="geometry">
            <mxPoint x="-100" y="-870" as="sourcePoint" />
            <mxPoint x="-40" y="-870" as="targetPoint" />
          </mxGeometry>
        </mxCell>
        <mxCell id="TRAau30YiLm6-F1vyoVF-16" value="" style="endArrow=classic;html=1;rounded=0;exitX=1;exitY=0.5;exitDx=0;exitDy=0;entryX=0;entryY=0.5;entryDx=0;entryDy=0;" edge="1" parent="1" source="TRAau30YiLm6-F1vyoVF-6" target="TRAau30YiLm6-F1vyoVF-5">
          <mxGeometry width="50" height="50" relative="1" as="geometry">
            <mxPoint x="-90" y="-860" as="sourcePoint" />
            <mxPoint x="-30" y="-860" as="targetPoint" />
          </mxGeometry>
        </mxCell>
        <mxCell id="TRAau30YiLm6-F1vyoVF-22" style="edgeStyle=orthogonalEdgeStyle;rounded=0;orthogonalLoop=1;jettySize=auto;html=1;exitX=1;exitY=0.5;exitDx=0;exitDy=0;entryX=0;entryY=0.5;entryDx=0;entryDy=0;" edge="1" parent="1" source="TRAau30YiLm6-F1vyoVF-19" target="TRAau30YiLm6-F1vyoVF-20">
          <mxGeometry relative="1" as="geometry" />
        </mxCell>
        <mxCell id="TRAau30YiLm6-F1vyoVF-19" value="New MC Patietn" style="rounded=0;whiteSpace=wrap;html=1;" vertex="1" parent="1">
          <mxGeometry x="-270" y="-1300" width="160" height="60" as="geometry" />
        </mxCell>
        <mxCell id="TRAau30YiLm6-F1vyoVF-20" value="&lt;b&gt;DB&lt;/b&gt;" style="shape=datastore;whiteSpace=wrap;html=1;" vertex="1" parent="1">
          <mxGeometry x="-30" y="-1300" width="60" height="60" as="geometry" />
        </mxCell>
        <mxCell id="TRAau30YiLm6-F1vyoVF-23" value="&lt;font style=&quot;font-size: 26px;&quot;&gt;&lt;b&gt;2/3&lt;/b&gt;&lt;/font&gt;" style="ellipse;whiteSpace=wrap;html=1;aspect=fixed;" vertex="1" parent="1">
          <mxGeometry x="-714" y="-1067" width="50" height="50" as="geometry" />
        </mxCell>
        <mxCell id="TRAau30YiLm6-F1vyoVF-25" value="&lt;font style=&quot;font-size: 26px;&quot;&gt;&lt;b&gt;1&lt;/b&gt;&lt;/font&gt;" style="ellipse;whiteSpace=wrap;html=1;aspect=fixed;" vertex="1" parent="1">
          <mxGeometry x="-510" y="-465" width="50" height="50" as="geometry" />
        </mxCell>
        <mxCell id="TRAau30YiLm6-F1vyoVF-26" value="&lt;font style=&quot;font-size: 26px;&quot;&gt;&lt;b&gt;5&lt;/b&gt;&lt;/font&gt;" style="ellipse;whiteSpace=wrap;html=1;aspect=fixed;" vertex="1" parent="1">
          <mxGeometry x="-745" y="-605" width="50" height="50" as="geometry" />
        </mxCell>
        <mxCell id="TRAau30YiLm6-F1vyoVF-28" value="&lt;font style=&quot;font-size: 26px;&quot;&gt;&lt;b&gt;6&lt;/b&gt;&lt;/font&gt;" style="ellipse;whiteSpace=wrap;html=1;aspect=fixed;" vertex="1" parent="1">
          <mxGeometry x="-215" y="-720" width="50" height="50" as="geometry" />
        </mxCell>
        <mxCell id="TRAau30YiLm6-F1vyoVF-29" value="&lt;font style=&quot;font-size: 26px;&quot;&gt;&lt;b&gt;2/3&lt;/b&gt;&lt;/font&gt;" style="ellipse;whiteSpace=wrap;html=1;aspect=fixed;" vertex="1" parent="1">
          <mxGeometry x="-410.5" y="-1370" width="50" height="50" as="geometry" />
        </mxCell>
        <mxCell id="TRAau30YiLm6-F1vyoVF-30" value="Sync-Service" style="verticalLabelPosition=bottom;aspect=fixed;html=1;verticalAlign=top;strokeColor=none;shape=mxgraph.citrix.file_server;rounded=0;shadow=0;comic=0;fontFamily=Verdana;" vertex="1" parent="1">
          <mxGeometry x="23" y="-1049" width="71" height="97" as="geometry" />
        </mxCell>
        <mxCell id="TRAau30YiLm6-F1vyoVF-31" value="MC&lt;br&gt;Meeting&lt;br&gt;&amp;nbsp;&amp;nbsp; Notifications" style="ellipse;whiteSpace=wrap;html=1;aspect=fixed;" vertex="1" parent="1">
          <mxGeometry x="-180" y="-1057" width="120" height="120" as="geometry" />
        </mxCell>
        <mxCell id="TRAau30YiLm6-F1vyoVF-32" value="" style="endArrow=classic;html=1;rounded=0;" edge="1" parent="1" source="TRAau30YiLm6-F1vyoVF-31">
          <mxGeometry width="50" height="50" relative="1" as="geometry">
            <mxPoint x="-107" y="-1007" as="sourcePoint" />
            <mxPoint x="-77" y="-1037" as="targetPoint" />
          </mxGeometry>
        </mxCell>
        <mxCell id="TRAau30YiLm6-F1vyoVF-33" value="" style="endArrow=classic;html=1;rounded=0;" edge="1" parent="1">
          <mxGeometry width="50" height="50" relative="1" as="geometry">
            <mxPoint x="-168.5" y="-997" as="sourcePoint" />
            <mxPoint x="-118.5" y="-947" as="targetPoint" />
          </mxGeometry>
        </mxCell>
        <mxCell id="TRAau30YiLm6-F1vyoVF-34" value="" style="endArrow=classic;html=1;rounded=0;" edge="1" parent="1">
          <mxGeometry width="50" height="50" relative="1" as="geometry">
            <mxPoint x="-68.5" y="-997" as="sourcePoint" />
            <mxPoint x="-118.5" y="-1047" as="targetPoint" />
          </mxGeometry>
        </mxCell>
        <mxCell id="TRAau30YiLm6-F1vyoVF-35" value="" style="endArrow=classic;html=1;rounded=0;exitX=0.5;exitY=1;exitDx=0;exitDy=0;entryX=0.5;entryY=1;entryDx=0;entryDy=0;" edge="1" parent="1" source="TRAau30YiLm6-F1vyoVF-31" target="TRAau30YiLm6-F1vyoVF-36">
          <mxGeometry width="50" height="50" relative="1" as="geometry">
            <mxPoint x="153" y="-877" as="sourcePoint" />
            <mxPoint x="313" y="-887" as="targetPoint" />
            <Array as="points">
              <mxPoint x="-120" y="-887" />
              <mxPoint x="243" y="-887" />
            </Array>
          </mxGeometry>
        </mxCell>
        <mxCell id="TRAau30YiLm6-F1vyoVF-36" value="Send &lt;br&gt;Notifications" style="ellipse;whiteSpace=wrap;html=1;aspect=fixed;" vertex="1" parent="1">
          <mxGeometry x="183" y="-1057" width="120" height="120" as="geometry" />
        </mxCell>
        <mxCell id="TRAau30YiLm6-F1vyoVF-37" value="" style="endArrow=classic;html=1;rounded=0;entryX=0.5;entryY=0;entryDx=0;entryDy=0;exitX=0.5;exitY=0;exitDx=0;exitDy=0;" edge="1" parent="1" source="TRAau30YiLm6-F1vyoVF-36" target="TRAau30YiLm6-F1vyoVF-31">
          <mxGeometry width="50" height="50" relative="1" as="geometry">
            <mxPoint x="158" y="-1198" as="sourcePoint" />
            <mxPoint x="240" y="-1158" as="targetPoint" />
            <Array as="points">
              <mxPoint x="243" y="-1108" />
              <mxPoint x="-122" y="-1108" />
            </Array>
          </mxGeometry>
        </mxCell>
        <mxCell id="TRAau30YiLm6-F1vyoVF-39" value="&lt;font style=&quot;font-size: 26px;&quot;&gt;&lt;b&gt;7&lt;/b&gt;&lt;/font&gt;" style="ellipse;whiteSpace=wrap;html=1;aspect=fixed;" vertex="1" parent="1">
          <mxGeometry x="120" y="-1073" width="50" height="50" as="geometry" />
        </mxCell>
      </root>
    </mxGraphModel>
  </diagram>
</mxfile>
